<svg xmlns="http://www.w3.org/2000/svg" viewBox="0 0 267.62 48"><defs><linearGradient id="a" x1="-242.45" x2="444.99" y1="137.36" y2="137.36" gradientTransform="translate(98.124 -26.46)scale(.36735)" gradientUnits="userSpaceOnUse"><stop offset="0" stop-color="#d50000"/><stop offset=".501" stop-color="#a0f"/><stop offset="1" stop-color="#2962ff"/></linearGradient></defs><path fill="url(#a)" d="m20.082 46.971-8.278-17.29 11.804-12.049h9.747L20.963 29.877l8.376 17.094zM0 47.02 11.755 0h8.522L8.522 47.02zm51.086 0 2.547-10.384H32.278L57.992 2.938h9.306L46.727 29.583h8.865l1.96-7.837 8.865-4.212-2.988 12.05h5.192l-1.763 7.052h-4.996L59.315 47.02zm30.22.98q-3.967 0-6.318-1.96-2.302-2.008-3.037-5.093-.686-3.135.147-6.564l4.212-16.75h8.522L80.62 34.284q-.636 2.645.441 4.653 1.078 2.009 3.918 2.009 2.205 0 4.115-1.47 1.959-1.518 2.743-4.702l4.359-17.143h8.522L97.371 47.02h-7.64l.734-3.135q-1.91 2.107-4.31 3.135-2.35.98-4.849.98zm33.6 0q-3.429 0-6.563-1.47-3.086-1.47-4.653-3.673l4.065-7.69q1.127 2.547 3.527 4.31 2.448 1.763 4.848 1.763 1.47 0 2.303-.636.881-.686.881-1.764 0-.832-.44-1.371-.441-.588-1.52-1.176l-3.721-2.057q-2.498-1.42-3.82-3.134-1.323-1.764-1.323-4.164 0-2.694 1.567-4.996 1.616-2.35 4.31-3.82 2.694-1.47 5.927-1.47 3.183 0 5.926 1.421 2.792 1.371 4.164 3.478l-3.82 7.396q-1.225-2.45-3.38-3.968-2.156-1.567-4.262-1.567-1.371 0-2.204.637-.783.636-.783 1.616 0 .735.391 1.274.441.538 1.323 1.028l3.38 1.861q3.33 1.813 4.701 3.576 1.372 1.763 1.372 4.114 0 2.743-1.666 5.143-1.616 2.4-4.408 3.87Q118.285 48 114.906 48zm18.318-.98 5.682-22.629h-5.486l1.665-6.76h5.633l2.449-9.795h8.229l-2.4 9.796h5.78l-1.666 6.759h-5.682l-5.681 22.629zm30.367.98q-3.967 0-6.318-1.96-2.302-2.008-3.037-5.093-.686-3.135.147-6.564l4.212-16.75h8.523l-4.213 16.652q-.636 2.645.441 4.653 1.078 2.009 3.919 2.009 2.204 0 4.114-1.47 1.96-1.518 2.743-4.702l4.359-17.143h8.522l-7.347 29.388h-7.64l.734-3.135q-1.91 2.107-4.31 3.135-2.351.98-4.849.98zm36.882 0q-4.212 0-7.935-2.155-3.722-2.156-5.485-6.27l6.465-8.13q0 2.253.93 4.26.98 1.96 2.694 3.184 1.764 1.176 4.115 1.176 2.449 0 4.457-1.225 2.008-1.224 3.184-3.232 1.224-2.008 1.224-4.36 0-2.791-1.812-4.701-1.812-1.96-5.388-1.96-1.078 0-2.204.196-1.127.196-2.351.637l11.559-14.841h-12.637l1.861-7.64h25.567L211.64 19.492q3.135 1.665 4.996 4.702 1.861 2.988 1.861 6.76 0 3.428-1.518 6.514-1.47 3.036-4.016 5.436-2.547 2.351-5.78 3.723-3.233 1.371-6.71 1.371zm22.384-.98L234.612 0h8.523l-4.898 19.641q1.763-1.518 3.82-2.253 2.057-.735 4.212-.735 3.968 0 6.27 2.008 2.35 1.96 3.085 5.094.735 3.086-.147 6.515l-4.212 16.75h-8.522l4.212-16.652q.686-2.645-.441-4.653-1.078-2.009-3.918-2.009-2.204 0-4.164 1.519-1.91 1.47-2.694 4.653L231.38 47.02zm38.841.98q-1.91 0-3.282-1.323-1.371-1.322-1.371-3.38 0-2.301 1.763-4.065 1.813-1.812 4.164-1.812 2.008 0 3.33 1.323 1.323 1.322 1.323 3.33 0 2.351-1.813 4.163Q264.05 48 261.698 48z"/></svg>