<svg xmlns="http://www.w3.org/2000/svg" version="0.0" viewBox="0 0 157.81 48"><defs><linearGradient id="a" x1="-242.45" x2="444.99" y1="137.36" y2="137.36" gradientTransform="translate(61.062 -1.23)scale(.18367)" gradientUnits="userSpaceOnUse"><stop offset="0" stop-color="#d50000"/><stop offset=".501" stop-color="#a0f"/><stop offset="1" stop-color="#2962ff"/></linearGradient></defs><path fill="url(#a)" d="m22.041 35.486-4.139-8.645 5.902-6.024h4.874l-6.196 6.122 4.188 8.547zM12 35.511 17.878 12h4.26l-5.877 23.51zm25.543 0 1.274-5.192H28.137l12.857-16.85h4.654L35.363 26.793h4.432l.98-3.919 4.433-2.106-1.494 6.025h2.596l-.882 3.526H42.93l-1.274 5.192zm15.11.49q-1.984 0-3.16-.98-1.15-1.004-1.518-2.547-.342-1.567.074-3.282l2.106-8.375h4.261l-2.106 8.326q-.318 1.323.22 2.327.54 1.004 1.96 1.004 1.102 0 2.057-.735.98-.76 1.371-2.35l2.18-8.572h4.261L60.686 35.51h-3.82l.366-1.568q-.955 1.054-2.155 1.568-1.175.49-2.424.49zm16.8 0q-1.714 0-3.282-.735-1.542-.735-2.326-1.837l2.033-3.845q.563 1.274 1.763 2.155 1.224.882 2.424.882.735 0 1.151-.319.441-.342.441-.881 0-.417-.22-.686-.22-.294-.76-.588l-1.86-1.028q-1.25-.71-1.91-1.568-.662-.881-.662-2.081 0-1.347.784-2.498.808-1.176 2.155-1.91 1.347-.735 2.963-.735 1.592 0 2.963.71 1.396.686 2.082 1.739l-1.91 3.698q-.613-1.225-1.69-1.984-1.078-.783-2.13-.783-.686 0-1.103.318-.392.318-.392.808 0 .367.196.637.22.27.662.514l1.69.93q1.665.907 2.35 1.788.686.882.686 2.058 0 1.371-.833 2.571-.808 1.2-2.204 1.935-1.371.734-3.06.734zm9.16-.49 2.84-11.314H78.71l.833-3.38h2.816l1.225-4.898h4.114l-1.2 4.898h2.89l-.833 3.38h-2.84L82.872 35.51zm15.183.49q-1.984 0-3.159-.98-1.151-1.004-1.518-2.547-.343-1.567.073-3.282l2.106-8.375h4.261l-2.106 8.326q-.318 1.323.22 2.327.54 1.004 1.96 1.004 1.102 0 2.057-.735.98-.76 1.372-2.35l2.18-8.572h4.26L101.83 35.51h-3.82l.367-1.568q-.955 1.054-2.155 1.568-1.176.49-2.425.49zm18.441 0q-2.106 0-3.967-1.078-1.861-1.078-2.743-3.135l3.233-4.065q0 1.126.465 2.13.49.98 1.347 1.592.882.588 2.057.588 1.225 0 2.229-.612 1.004-.613 1.591-1.617.613-1.004.613-2.18 0-1.395-.906-2.35-.906-.98-2.694-.98-.539 0-1.102.098t-1.176.318l5.78-7.42h-6.319l.931-3.82h12.784l-6.539 8.277q1.568.833 2.498 2.351.93 1.494.93 3.38 0 1.714-.758 3.257-.735 1.518-2.009 2.718-1.273 1.176-2.89 1.861t-3.354.686zm11.192-.49L129.307 12h4.26l-2.448 9.82q.882-.76 1.91-1.127t2.106-.367q1.984 0 3.135 1.004 1.175.98 1.543 2.547.367 1.543-.074 3.257l-2.106 8.376h-4.261l2.106-8.327q.343-1.322-.22-2.326-.54-1.004-1.96-1.004-1.102 0-2.081.759-.955.734-1.347 2.326l-2.18 8.572zm19.42.49q-.955 0-1.64-.662-.686-.661-.686-1.69 0-1.15.881-2.032.906-.907 2.082-.907 1.004 0 1.665.662.661.66.661 1.665 0 1.175-.906 2.082-.881.881-2.057.881z"/></svg>