<svg xmlns="http://www.w3.org/2000/svg" viewBox="0 0 256 256"><defs><linearGradient id="a" x1="63.997" x2="192" y1="128" y2="128" gradientUnits="userSpaceOnUse"><stop offset="0" stop-color="#d50000"/><stop offset=".5" stop-color="#a0f"/><stop offset="1" stop-color="#2962ff"/></linearGradient></defs><path fill="#1a1110" fill-rule="evenodd" d="M0 0h256v256H0z"/><path fill="url(#a)" d="m107.95 178.28-18.117-37.842 25.836-26.372h21.333l-27.122 26.801 18.332 37.414zm-43.953.107 25.729-102.91h18.653L82.65 178.387zm72.04 0 25.729-102.91h18.653l-25.729 102.91zm42.988 2.144q-4.18 0-7.183-2.894t-3.001-7.397q0-5.039 3.859-8.898 3.967-3.967 9.112-3.967 4.395 0 7.29 2.895t2.894 7.29q0 5.145-3.966 9.112-3.86 3.86-9.005 3.86z"/></svg>